<?xml version="1.0" encoding="UTF-8"?>
<svg width="44px" height="44px" viewBox="0 0 44 44" version="1.1" xmlns="http://www.w3.org/2000/svg" xmlns:xlink="http://www.w3.org/1999/xlink">
    <!-- Generator: Sketch 52.2 (67145) - http://www.bohemiancoding.com/sketch -->
    <title>CH-44</title>
    <desc>Created with Sketch.</desc>
    <g id="Welcome" stroke="none" stroke-width="1" fill="none" fill-rule="evenodd">
        <g id="CH-44">
            <circle id="椭圆形" stroke="#000000" stroke-width="0.5" fill="#DE2910" cx="22" cy="22" r="21.75"></circle>
            <polygon id="Fill-6" fill="#FFDE00" points="10.043 8.9272 11.454 13.2832 16.037 13.2832 12.333 15.9782 13.744 20.3372 10.043 17.6432 6.333 20.3372 7.749 15.9782 4.042 13.2832 8.626 13.2832"></polygon>
            <polygon id="Fill-8" fill="#FFDE00" points="21.9814 6.6523 21.8844 8.1593 23.2844 8.7163 21.8224 9.0873 21.7254 10.5923 20.9194 9.3193 19.4584 9.6933 20.4204 8.5303 19.6184 7.2583 21.0184 7.8133"></polygon>
            <polygon id="Fill-10" fill="#FFDE00" points="27.1269 11.5341 26.4389 12.8771 27.5019 13.9451 26.0149 13.7061 25.3249 15.0491 25.0949 13.5581 23.6049 13.3211 24.9469 12.6391 24.7189 11.1491 25.7809 12.2161"></polygon>
            <polygon id="Fill-12" fill="#FFDE00" points="25.5801 17.6455 26.0401 19.0805 27.5501 19.0825 26.3291 19.9665 26.7951 21.4025 25.5761 20.5145 24.3541 21.4005 24.8211 19.9665 23.6041 19.0805 25.1111 19.0825"></polygon>
            <polygon id="Fill-14" fill="#FFDE00" points="21.9697 22.248 21.8717 23.752 23.2747 24.311 21.8107 24.682 21.7127 26.188 20.9077 24.914 19.4467 25.286 20.4077 24.125 19.6067 22.852 21.0077 23.41"></polygon>
        </g>
    </g>
</svg>