<?xml version="1.0" encoding="UTF-8"?>
<svg width="117px" height="39px" viewBox="0 0 117 39" version="1.1" xmlns="http://www.w3.org/2000/svg" xmlns:xlink="http://www.w3.org/1999/xlink">
    <!-- Generator: Sketch 52.2 (67145) - http://www.bohemiancoding.com/sketch -->
    <title>logo</title>
    <desc>Created with Sketch.</desc>
    <g id="Welcome" stroke="none" stroke-width="1" fill="none" fill-rule="evenodd">
        <g id="主页-1440" transform="translate(-210.000000, -30.000000)" fill="#FFFFFF">
            <g id="part-1">
                <g id="导航" transform="translate(210.000000, 30.000000)">
                    <g id="logo">
                        <g fill-rule="nonzero" id="Combined-Shape">
                            <path d="M29,34.5 C29,36.9852814 26.9852814,39 24.5,39 C22.0147186,39 20,36.9852814 20,34.5 C20,31.4624339 17.5375661,29 14.5,29 C12.0147186,29 10,26.9852814 10,24.5 C10,22.0147186 12.0147186,20 14.5,20 C16.9852814,20 19,22.0147186 19,24.5 C19,27.5375661 21.4624339,30 24.5,30 C27.5375661,30 30,27.5375661 30,24.5 C30,22.0147186 32.0147186,20 34.5,20 C36.9852814,20 39,22.0147186 39,24.5 C39,26.9852814 36.9852814,29 34.5,29 C31.4624339,29 29,31.4624339 29,34.5 Z"></path>
                            <path d="M9,24.5 C9,27.5375661 11.4624339,30 14.5,30 C16.9852814,30 19,32.0147186 19,34.5 C19,36.9852814 16.9852814,39 14.5,39 C12.0147186,39 10,36.9852814 10,34.5 C10,31.4624339 7.53756612,29 4.5,29 C2.01471863,29 0,26.9852814 0,24.5 C0,22.0147186 2.01471863,20 4.5,20 C7.53756612,20 10,17.5375661 10,14.5 C10,12.0147186 12.0147186,10 14.5,10 C16.9852814,10 19,12.0147186 19,14.5 C19,16.9852814 16.9852814,19 14.5,19 C11.4624339,19 9,21.4624339 9,24.5 Z"></path>
                            <path d="M34.5,10 C36.9852814,10 39,12.0147186 39,14.5 C39,16.9852814 36.9852814,19 34.5,19 C31.4624339,19 29,21.4624339 29,24.5 C29,26.9852814 26.9852814,29 24.5,29 C22.0147186,29 20,26.9852814 20,24.5 C20,22.0147186 22.0147186,20 24.5,20 C27.5375661,20 30,17.5375661 30,14.5 C30,11.4624339 27.5375661,9 24.5,9 C22.0147186,9 20,6.98528137 20,4.5 C20,2.01471863 22.0147186,0 24.5,0 C26.9852814,0 29,2.01471863 29,4.5 C29,7.53756612 31.4624339,10 34.5,10 Z"></path>
                            <path d="M19,4.5 C19,7.53756612 21.4624339,10 24.5,10 C26.9852814,10 29,12.0147186 29,14.5 C29,16.9852814 26.9852814,19 24.5,19 C22.0147186,19 20,16.9852814 20,14.5 C20,11.4624339 17.5375661,9 14.5,9 C11.4624339,9 9,11.4624339 9,14.5 C9,16.9852814 6.98528137,19 4.5,19 C2.01471863,19 0,16.9852814 0,14.5 C0,12.0147186 2.01471863,10 4.5,10 C7.53756612,10 10,7.53756612 10,4.5 C10,2.01471863 12.0147186,0 14.5,0 C16.9852814,0 19,2.01471863 19,4.5 Z"></path>
                        </g>
                        <g id="logo-type" transform="translate(54.000000, 15.000000)">
                            <polygon id="Fill-18" points="17 10 16 10 16 1 13 1 13 0 20 0 20 1 17 1"></polygon>
                            <polygon id="Fill-22" points="10 10 8.52941176 10 5 2 1.47058824 10 2.99582581e-12 10 4.5 0 5.5 0"></polygon>
                            <polygon id="Fill-22-Copy" points="50 10 48.5294118 10 45 1.76470588 41.4705882 10 40 10 44.4117647 0 45.5882353 0"></polygon>
                            <polygon id="Fill-30" points="63 10 62 10 57.0024262 3.46245473 57.0001331 1.33351074 62 8 62 0 63 0"></polygon>
                            <polygon id="Fill-34" points="55 10 56 10 56 0 55 0"></polygon>
                            <polygon id="Fill-36" points="25 10 26 10 26 0 25 0"></polygon>
                            <polygon id="Fill-38" points="35 10 34 10 34 2 30.5 7 29.5 7 27.0059137 3.4370195 27.0041623 1.38072312 30 5.5 34 0 35 0"></polygon>
                        </g>
                    </g>
                </g>
            </g>
        </g>
    </g>
</svg>